<?xml version="1.0" encoding="utf-8"?>
<!-- Generator: Adobe Illustrator 26.2.1, SVG Export Plug-In . SVG Version: 6.00 Build 0)  -->
<svg version="1.1" id="Layer_1" xmlns="http://www.w3.org/2000/svg" xmlns:xlink="http://www.w3.org/1999/xlink" x="0px" y="0px"
	 viewBox="0 0 50 50" style="enable-background:new 0 0 50 50;" xml:space="preserve">
<path d="M30.05,25l18.9-18.9c1.4-1.4,1.4-3.66,0-5.05c-1.4-1.4-3.66-1.4-5.05,0L25,19.95L6.1,1.05c-1.4-1.4-3.66-1.4-5.05,0
	s-1.4,3.66,0,5.05L19.95,25L1.05,43.9c-1.4,1.4-1.4,3.66,0,5.05C1.74,49.65,2.66,50,3.57,50s1.83-0.35,2.53-1.05L25,30.05l18.9,18.9
	c0.7,0.7,1.61,1.05,2.53,1.05c0.91,0,1.83-0.35,2.53-1.05c1.4-1.4,1.4-3.66,0-5.05L30.05,25z"/>
</svg>
