<?xml version="1.0" encoding="utf-8"?>
<!-- Generator: Adobe Illustrator 26.2.1, SVG Export Plug-In . SVG Version: 6.00 Build 0)  -->
<svg version="1.1" id="Layer_1" xmlns="http://www.w3.org/2000/svg" xmlns:xlink="http://www.w3.org/1999/xlink" x="0px" y="0px"
	 viewBox="0 0 50 50" style="enable-background:new 0 0 50 50;" xml:space="preserve">
<style type="text/css">
	.st0{fill-rule:evenodd;clip-rule:evenodd;}
</style>
<path class="st0" d="M24.92,0.26c-13-0.02-23.82,9.97-24.84,22.93c-1.02,12.96,8.12,24.52,20.96,26.52V32.3h-6.32v-7.16h6.32v-5.47
	c-0.28-2.59,0.6-5.17,2.42-7.04c1.81-1.87,4.36-2.84,6.96-2.64c1.87,0.02,3.73,0.18,5.57,0.47v6.12h-3.13
	c-1.08-0.14-2.17,0.22-2.95,0.97c-0.79,0.75-1.19,1.82-1.1,2.91v4.68h6.92l-1.12,7.19h-5.8v17.41
	c12.92-1.93,22.15-13.52,21.13-26.55C48.9,10.17,37.98,0.15,24.92,0.26z"/>
</svg>
