<?xml version="1.0" encoding="utf-8"?>
<!-- Generator: Adobe Illustrator 26.2.1, SVG Export Plug-In . SVG Version: 6.00 Build 0)  -->
<svg version="1.1" id="Layer_1" xmlns="http://www.w3.org/2000/svg" xmlns:xlink="http://www.w3.org/1999/xlink" x="0px" y="0px"
	 viewBox="0 0 50 50" style="enable-background:new 0 0 50 50;" xml:space="preserve">
<g>
	<path d="M47.5,22.5h-45C1.12,22.5,0,23.62,0,25s1.12,2.5,2.5,2.5h45c1.38,0,2.5-1.12,2.5-2.5S48.88,22.5,47.5,22.5z"/>
	<path d="M2.5,12.5h45c1.38,0,2.5-1.12,2.5-2.5s-1.12-2.5-2.5-2.5h-45C1.12,7.5,0,8.62,0,10S1.12,12.5,2.5,12.5z"/>
	<path d="M47.5,37.5h-45C1.12,37.5,0,38.62,0,40s1.12,2.5,2.5,2.5h45c1.38,0,2.5-1.12,2.5-2.5S48.88,37.5,47.5,37.5z"/>
</g>
</svg>
