<?xml version="1.0" encoding="utf-8"?>
<!-- Generator: Adobe Illustrator 26.2.1, SVG Export Plug-In . SVG Version: 6.00 Build 0)  -->
<svg version="1.1" id="Layer_1" xmlns="http://www.w3.org/2000/svg" xmlns:xlink="http://www.w3.org/1999/xlink" x="0px" y="0px"
	 viewBox="0 0 50 50" style="enable-background:new 0 0 50 50;" xml:space="preserve">
<style type="text/css">
	.st0{fill-rule:evenodd;clip-rule:evenodd;}
</style>
<path class="st0" d="M15.92,45.21c18.66,0,29.1-15.67,29.1-29.1c0-0.5,0-1,0-1.24c1.99-1.49,3.73-3.23,4.98-5.22
	c-1.74,0.75-3.73,1.24-5.97,1.49c2.24-1.24,3.73-3.23,4.48-5.72c-1.99,1.24-4.23,1.99-6.47,2.49c-3.73-3.98-10.2-4.23-14.43-0.25
	c-2.74,2.49-3.73,6.22-2.99,9.7c-8.21-0.5-15.67-4.23-20.9-10.7c-2.74,4.73-1.24,10.7,3.23,13.68c-1.74,0-3.23-0.5-4.73-1.24
	c0,0,0,0,0,0.25c0,4.98,3.48,8.96,8.21,9.95c-1.49,0.5-2.98,0.5-4.73,0.25c1.24,4.23,5.22,6.97,9.45,6.97
	c-3.73,2.74-7.96,4.48-12.69,4.48c-0.75,0-1.74,0-2.49-0.25C4.97,43.72,10.45,45.21,15.92,45.21"/>
</svg>
