<?xml version="1.0" encoding="utf-8"?>
<!-- Generator: Adobe Illustrator 26.2.1, SVG Export Plug-In . SVG Version: 6.00 Build 0)  -->
<svg version="1.1" id="Layer_1" xmlns="http://www.w3.org/2000/svg" xmlns:xlink="http://www.w3.org/1999/xlink" x="0px" y="0px"
	 viewBox="0 0 50 50" style="enable-background:new 0 0 50 50;" xml:space="preserve">
<style type="text/css">
	.st0{fill-rule:evenodd;clip-rule:evenodd;}
</style>
<path class="st0" d="M20,32.44v-15l13.07,7.5L20,32.44z M48.95,12.81c-0.58-2.16-2.27-3.84-4.42-4.42C40.62,7.44,25,7.44,25,7.44
	s-15.62,0-19.52,1.07c-2.13,0.56-3.81,2.19-4.42,4.3c-0.72,4-1.08,8.06-1.05,12.12C-0.02,29,0.33,33.06,1.05,37.06
	c0.58,2.16,2.27,3.84,4.42,4.42C9.38,42.56,25,42.56,25,42.56s15.62,0,19.52-1.07c2.16-0.58,3.84-2.27,4.42-4.42
	c0.72-4,1.08-8.06,1.05-12.12C50.02,20.87,49.67,16.81,48.95,12.81z"/>
</svg>
